<?xml version="1.0" encoding="UTF-8"?>
<svg version="1.1" xmlns="http://www.w3.org/2000/svg" width="256" height="206">
<path d="M0 0 C84.48 0 168.96 0 256 0 C256 67.98 256 135.96 256 206 C171.52 206 87.04 206 0 206 C0 138.02 0 70.04 0 0 Z " fill="#E5E5E6" transform="translate(0,0)"/>
<path d="M0 0 C1.92759356 -0.00514319 3.85518242 -0.01242748 5.78276062 -0.02168274 C10.99978586 -0.04015388 16.21629821 -0.0272851 21.43330193 -0.00759244 C26.9023584 0.00883072 32.37138332 -0.00002394 37.8404541 -0.00511169 C47.02343914 -0.00962854 56.20622022 0.00621194 65.38916016 0.03417969 C75.99396985 0.06622962 86.59841175 0.06621443 97.20324755 0.04896492 C107.42014695 0.03308102 117.63691199 0.03984541 127.85380554 0.05690193 C132.19491672 0.06376035 136.53591981 0.06275237 140.87702942 0.05535698 C145.99241428 0.04767524 151.10738241 0.05988206 156.2226963 0.08720589 C158.09592769 0.09407097 159.96919814 0.0942079 161.84242821 0.08699036 C181.3428179 0.02053362 181.3428179 0.02053362 189.37695312 6.52563477 C189.90417969 7.15856445 190.43140625 7.79149414 190.97460938 8.44360352 C191.51988281 9.06879883 192.06515625 9.69399414 192.62695312 10.33813477 C196.90642992 17.29672999 196.29978516 24.88278553 196.23242188 32.78344727 C196.22959198 34.03871719 196.22676208 35.29398712 196.22384644 36.58729553 C196.21458065 39.90324698 196.19665237 43.21891653 196.17443848 46.53479004 C196.15387532 49.92689597 196.14482247 53.31903117 196.13476562 56.71118164 C196.11276058 63.35124271 196.07825901 69.9911346 196.03710938 76.63110352 C191.41710937 76.63110352 186.79710937 76.63110352 182.03710938 76.63110352 C182.03710938 61.45110352 182.03710938 46.27110352 182.03710938 30.63110352 C172.96223487 38.04814007 172.96223487 38.04814007 164.03710938 45.63110352 C159.93580601 49.16833077 155.80904251 52.65977579 151.59960938 56.06860352 C146.55016168 60.16896266 141.63937921 64.41479701 136.73364258 68.68457031 C127.8759297 76.39079176 118.92311776 83.97651583 109.79492188 91.36157227 C107.82227839 92.98495168 105.88718544 94.62428726 103.96679688 96.30688477 C95.07663679 104.05481927 89.23173127 107.38750187 77.26757812 107.02954102 C66.98602751 105.76144167 59.49765732 98.23279113 52.03710938 91.63110352 C46.56113318 95.43593711 41.88770315 99.66223294 37.23242188 104.42797852 C35.34875626 106.31834756 33.43676491 108.08318448 31.41210938 109.81860352 C27.38929615 113.27017726 23.52770344 116.88094395 19.66210938 120.50610352 C14.66088483 125.19348479 9.62672911 129.83454667 4.51757812 134.40454102 C1.55058611 137.06782518 -1.39641455 139.75219979 -4.33789062 142.44360352 C-4.83828857 142.90017334 -5.33868652 143.35674316 -5.85424805 143.82714844 C-8.62945149 146.36971695 -11.29869575 148.96690864 -13.96289062 151.63110352 C25.96710937 151.96110352 65.89710937 152.29110352 107.03710938 152.63110352 C108.35940127 155.2756873 108.13388132 157.30871653 108.09960938 160.25610352 C108.09058594 161.25899414 108.0815625 162.26188477 108.07226562 163.29516602 C108.05486328 164.45145508 108.05486328 164.45145508 108.03710938 165.63110352 C91.61656988 165.72466047 75.19611721 165.79513819 58.77537537 165.8383522 C51.15045243 165.85895305 43.52569536 165.88702594 35.90087891 165.93286133 C29.25291899 165.97280535 22.60507924 165.99855434 15.95700264 166.00745749 C12.43879438 166.01265954 8.92092983 166.0248337 5.40283203 166.05402374 C1.46966241 166.08639117 -2.46317493 166.08705807 -6.39648438 166.08520508 C-7.55526596 166.09958618 -8.71404755 166.11396729 -9.90794373 166.12878418 C-17.55012952 166.08986054 -23.20188678 165.15250673 -28.98632812 159.73657227 C-29.43234375 159.10364258 -29.87835938 158.47071289 -30.33789062 157.81860352 C-30.799375 157.1934082 -31.26085937 156.56821289 -31.73632812 155.92407227 C-35.45879079 148.96520098 -35.25419667 142.03701538 -35.23754883 134.32104492 C-35.24265976 133.09577591 -35.24777069 131.8705069 -35.2530365 130.60810852 C-35.26452086 127.26290202 -35.26701151 123.91794404 -35.2644732 120.57273531 C-35.26339951 117.77225832 -35.26829706 114.97180389 -35.27307862 112.17133176 C-35.28415441 105.55992323 -35.28462225 98.94857152 -35.27856445 92.3371582 C-35.27252722 85.53486461 -35.28483363 78.73277799 -35.30613452 71.9305197 C-35.32379473 66.07379744 -35.32974489 60.21714081 -35.32649678 54.36039293 C-35.32469063 50.86973777 -35.32725275 47.37923025 -35.34121132 43.8885994 C-35.35621053 39.99230186 -35.34678096 36.09626452 -35.33520508 32.19995117 C-35.34284882 31.05576218 -35.35049255 29.91157318 -35.35836792 28.73271179 C-35.30780458 21.0133636 -34.2985658 14.58378458 -30.33789062 7.88110352 C-21.35580087 -0.62824468 -11.69476074 -0.0792415 0 0 Z " fill="#171B1C" transform="translate(37.962890625,2.368896484375)"/>
<path d="M0 0 C0.69512695 -0.00287018 1.39025391 -0.00574036 2.10644531 -0.00869751 C3.57227394 -0.01073384 5.03813001 -0.00523406 6.50390625 0.00732422 C8.74280777 0.0233859 10.97990437 0.00746292 13.21875 -0.01171875 C14.6458373 -0.00973624 16.07292349 -0.0058924 17.5 0 C19.44132812 0.00507568 19.44132812 0.00507568 21.421875 0.01025391 C24.97116553 0.42423366 26.47448508 0.64150895 28.75 3.3984375 C29.140625 6.53515625 29.140625 6.53515625 29 10.0859375 C28.96390625 11.26542969 28.9278125 12.44492188 28.890625 13.66015625 C28.84421875 14.56378906 28.7978125 15.46742187 28.75 16.3984375 C29.51143311 16.37749023 30.27286621 16.35654297 31.05737305 16.33496094 C34.51728032 16.25165955 37.97697638 16.19973166 41.4375 16.1484375 C42.63568359 16.11492187 43.83386719 16.08140625 45.06835938 16.046875 C46.80375977 16.02753906 46.80375977 16.02753906 48.57421875 16.0078125 C49.63729248 15.98686523 50.70036621 15.96591797 51.7956543 15.94433594 C55.50292935 16.51416749 57.12980473 17.75674832 59.75 20.3984375 C60.75839778 24.09589603 60.98832164 26.50473136 60 30.2109375 C58.75 32.3984375 58.75 32.3984375 55.75 34.3984375 C54.76 34.3984375 53.77 34.3984375 52.75 34.3984375 C52.71261719 35.53410156 52.67523438 36.66976562 52.63671875 37.83984375 C52.18525421 49.94081569 51.40924361 62.01370951 50.50772095 74.08834839 C50.37834319 75.8264032 50.25117992 77.56462438 50.12631226 79.30300903 C49.94661766 81.78982147 49.75776564 84.27577969 49.56640625 86.76171875 C49.51426971 87.49863953 49.46213318 88.2355603 49.40841675 88.99481201 C48.73740344 97.39373932 47.96094979 104.33536747 41.75 110.3984375 C38.53866232 112.41373262 36.0270783 112.65513713 32.26635742 112.6730957 C31.16809128 112.68262772 30.06982513 112.69215973 28.9382782 112.70198059 C27.75595108 112.70106918 26.57362396 112.70015778 25.35546875 112.69921875 C24.13475174 112.70350388 22.91403473 112.707789 21.65632629 112.71220398 C19.07321798 112.71794763 16.49009349 112.71844729 13.90698242 112.71411133 C9.96309627 112.71095797 6.01996492 112.73438856 2.07617188 112.75976562 C-0.43489489 112.76203932 -2.94596367 112.76274179 -5.45703125 112.76171875 C-6.63328568 112.7709285 -7.8095401 112.78013824 -9.0214386 112.78962708 C-16.37904838 112.7482548 -21.74975615 112.33107424 -27.5625 107.4609375 C-33.09051142 97.42862048 -32.06463114 82.89512061 -32.8125 71.6484375 C-32.93893366 69.81506827 -33.06588386 67.98173458 -33.19335938 66.1484375 C-33.92438334 55.56795838 -34.60316475 44.98437983 -35.25 34.3984375 C-35.87519531 34.25535156 -36.50039062 34.11226562 -37.14453125 33.96484375 C-39.83503705 33.24105276 -40.67702278 32.7204515 -42.25 30.3984375 C-42.97238405 27.41258341 -43.45927223 25.3805668 -43.25 22.3984375 C-41.48535939 19.53850272 -40.25434303 17.90060901 -37.25 16.3984375 C-35.2906396 16.31333545 -33.32837206 16.29126094 -31.3671875 16.30078125 C-30.20058594 16.30400391 -29.03398437 16.30722656 -27.83203125 16.31054688 C-26.60871094 16.31892578 -25.38539063 16.32730469 -24.125 16.3359375 C-22.89394531 16.34044922 -21.66289062 16.34496094 -20.39453125 16.34960938 C-17.34630608 16.3614242 -14.29817686 16.37789722 -11.25 16.3984375 C-11.29640625 15.49480469 -11.3428125 14.59117188 -11.390625 13.66015625 C-11.44476563 11.89091797 -11.44476563 11.89091797 -11.5 10.0859375 C-11.54640625 8.91417969 -11.5928125 7.74242188 -11.640625 6.53515625 C-11.25 3.3984375 -11.25 3.3984375 -9.6875 1.50537109 C-6.35802939 -0.00663008 -3.65367463 0.00955269 0 0 Z " fill="#E5271D" transform="translate(191.25,89.6015625)"/>
<path d="M0 0 C63.03 0 126.06 0 191 0 C189.77167663 3.68497012 188.41383683 4.49950808 185.375 6.875 C180.64864665 10.64380643 176.05033423 14.52069717 171.5 18.5 C166.34496115 22.9958763 161.12485648 27.38626035 155.80859375 31.69140625 C152.49701634 34.41343997 149.24683884 37.20136324 146 40 C141.89764847 43.53605226 137.77198323 47.02863171 133.5625 50.4375 C129.10398559 54.05428898 124.76284446 57.78893736 120.4375 61.5625 C102.09089335 77.53791831 102.09089335 77.53791831 93.45703125 77.3984375 C85.91389312 76.17522591 79.97462697 69.31758714 74.58984375 64.34765625 C71.1380044 61.21861334 67.52936717 58.30701898 63.91015625 55.375 C59.10322988 51.4520319 54.38530046 47.4245624 49.65722656 43.40722656 C46.94134262 41.1010458 44.2205156 38.80071332 41.5 36.5 C38.22402395 33.72953924 34.94922865 30.95774155 31.6796875 28.1796875 C23.8311849 21.51551538 15.93038848 14.92092068 7.87109375 8.51171875 C6.35708984 7.29935547 6.35708984 7.29935547 4.8125 6.0625 C3.42998047 4.96615234 3.42998047 4.96615234 2.01953125 3.84765625 C1.35308594 3.23792969 0.68664062 2.62820312 0 2 C0 1.34 0 0.68 0 0 Z " fill="#E5E6E7" transform="translate(23,18)"/>
<path d="M0 0 C3.06224932 1.53112466 4.83850679 2.55180958 7.28515625 4.72265625 C8.19599976 5.52328491 8.19599976 5.52328491 9.12524414 6.34008789 C9.76453857 6.90848389 10.40383301 7.47687988 11.0625 8.0625 C12.41562113 9.25119122 13.7697935 10.43868682 15.125 11.625 C16.11886719 12.49511719 16.11886719 12.49511719 17.1328125 13.3828125 C19.56937304 15.49313899 22.05722858 17.53442314 24.5625 19.5625 C28.77198495 22.97136969 32.89761866 26.46397981 37 30 C42.1302593 34.42140915 47.32061936 38.74975226 52.578125 43.01953125 C55.7662865 45.62662461 58.8878767 48.30282648 62 51 C60.84960919 52.15039081 59.69888266 53.30044707 58.546875 54.44921875 C57.48959702 55.50916662 56.43774005 56.57454233 55.390625 57.64453125 C52.51580401 60.56550763 49.60603016 63.38767576 46.5 66.0625 C42.48638698 69.52385232 38.61697027 73.12698885 34.75 76.75 C29.17393673 81.97328769 23.57514118 87.16818088 17.9296875 92.31640625 C15.8403755 94.23021604 13.76305527 96.1530701 11.6953125 98.08984375 C11.15028076 98.59749268 10.60524902 99.1051416 10.04370117 99.62817383 C8.99863935 100.60207169 7.95694091 101.57959546 6.91918945 102.5612793 C4.60078749 104.71422317 3.04550599 105.98483134 0 107 C0 71.69 0 36.38 0 0 Z " fill="#E5E6E7" transform="translate(17,33)"/>
<path d="M0 0 C2.5 0.25 2.5 0.25 4.5 2.25 C4.75396729 4.29258728 4.75396729 4.29258728 4.75878906 6.83569336 C4.76509338 7.78685532 4.77139771 8.73801727 4.77789307 9.71800232 C4.7738446 10.74820999 4.76979614 11.77841766 4.765625 12.83984375 C4.76753845 13.89530899 4.7694519 14.95077423 4.77142334 16.03822327 C4.77278614 18.27345009 4.76908313 20.50868481 4.76074219 22.74389648 C4.75005478 26.16993984 4.760629 29.59545753 4.7734375 33.02148438 C4.77211571 35.19010533 4.76955293 37.35872595 4.765625 39.52734375 C4.76967346 40.55552719 4.77372192 41.58371063 4.77789307 42.64305115 C4.77158875 43.59736526 4.76528442 44.55167938 4.75878906 45.53491211 C4.75640228 46.79494301 4.75640228 46.79494301 4.75396729 48.08042908 C4.5 50.25 4.5 50.25 2.5 53.25 C0 53.5625 0 53.5625 -2.5 53.25 C-4.99261318 50.75738682 -4.75242752 49.9949321 -4.75878906 46.55664062 C-4.76509338 45.58223022 -4.77139771 44.60781982 -4.77789307 43.60388184 C-4.7738446 42.54866333 -4.76979614 41.49344482 -4.765625 40.40625 C-4.76753845 39.32621704 -4.7694519 38.24618408 -4.77142334 37.13342285 C-4.77278607 34.84692146 -4.76908352 32.56041236 -4.76074219 30.27392578 C-4.75004412 26.76447245 -4.76063473 23.25553107 -4.7734375 19.74609375 C-4.77211592 17.5286447 -4.76955356 15.31119597 -4.765625 13.09375 C-4.76967346 12.03853149 -4.77372192 10.98331299 -4.77789307 9.89611816 C-4.77158875 8.92170776 -4.76528442 7.94729736 -4.75878906 6.94335938 C-4.75719788 6.08335327 -4.75560669 5.22334717 -4.75396729 4.33728027 C-4.35645546 1.07025083 -3.19402161 0.31940216 0 0 Z " fill="#E7DADC" transform="translate(200.5,131.75)"/>
<path d="M0 0 C2.6875 0.875 2.6875 0.875 5 2 C5.29007402 6.87031198 5.57463145 11.74090685 5.85449219 16.61181641 C5.95005107 18.26229141 6.0470119 19.91268595 6.14550781 21.56298828 C7.57391447 45.5398144 7.57391447 45.5398144 7 52 C5 54 5 54 2.5 54.3125 C1.675 54.209375 0.85 54.10625 0 54 C-2.05203196 50.92195205 -2.27311055 50.09954732 -2.4140625 46.58984375 C-2.45305664 45.69418701 -2.49205078 44.79853027 -2.53222656 43.87573242 C-2.5628418 42.90611572 -2.59345703 41.93649902 -2.625 40.9375 C-2.66077148 39.93630127 -2.69654297 38.93510254 -2.73339844 37.90356445 C-2.84020094 34.6026044 -2.92389119 31.30180681 -3 28 C-3.02868164 26.81341797 -3.05736328 25.62683594 -3.08691406 24.40429688 C-3.16265568 20.83197724 -3.2116219 17.26040122 -3.25 13.6875 C-3.27143066 12.55497803 -3.29286133 11.42245605 -3.31494141 10.25561523 C-3.31929199 9.20575439 -3.32364258 8.15589355 -3.328125 7.07421875 C-3.3374707 6.14182373 -3.34681641 5.20942871 -3.35644531 4.2487793 C-3.23881836 3.50668213 -3.12119141 2.76458496 -3 2 C-2.01 1.34 -1.02 0.68 0 0 Z " fill="#E6DFE0" transform="translate(178,131)"/>
<path d="M0 0 C2.6875 0.875 2.6875 0.875 5 2 C5.11250704 12.01312689 4.99213548 21.9944664 4.5625 32 C4.52326416 32.94174072 4.48402832 33.88348145 4.44360352 34.85375977 C3.64008794 52.35991206 3.64008794 52.35991206 2 54 C-0.4375 54.1875 -0.4375 54.1875 -3 54 C-5 52 -5 52 -5.21069336 49.46191406 C-5.19143799 48.40713867 -5.17218262 47.35236328 -5.15234375 46.265625 C-5.13413574 45.09451172 -5.11592773 43.92339844 -5.09716797 42.71679688 C-5.06510254 41.49025391 -5.03303711 40.26371094 -5 39 C-4.97180176 37.83017578 -4.94360352 36.66035156 -4.91455078 35.45507812 C-4.81540616 31.88587184 -4.69242939 28.31821004 -4.5625 24.75 C-4.52318359 23.54859375 -4.48386719 22.3471875 -4.44335938 21.109375 C-3.95982007 7.54051826 -3.95982007 7.54051826 -3 2 C-2.01 1.34 -1.02 0.68 0 0 Z " fill="#E6E0E1" transform="translate(221,131)"/>
<path d="M0 0 C7.26 0 14.52 0 22 0 C22 1.98 22 3.96 22 6 C14.74 6 7.48 6 0 6 C0 4.02 0 2.04 0 0 Z " fill="#E6DADA" transform="translate(189,100)"/>
</svg>
